<svg xmlns="http://www.w3.org/2000/svg" viewBox="0 0 200 60" fill="none">
  <!-- Green circle with N -->
  <circle cx="30" cy="30" r="26" fill="#32CD32"/>
  <circle cx="30" cy="30" r="23" fill="#2AB82A"/>
  <text x="30" y="40" font-family="Arial, sans-serif" font-weight="bold" font-size="32" fill="white" text-anchor="middle">N</text>
  <!-- Decorative compass elements -->
  <path d="M10 30 L6 30 M54 30 L50 30 M30 6 L30 10 M30 50 L30 54" stroke="#FF8C00" stroke-width="2" stroke-linecap="round"/>
  <path d="M14 14 L17 17 M43 43 L46 46 M14 46 L17 43 M43 17 L46 14" stroke="#FCC980" stroke-width="1.5" stroke-linecap="round"/>
  <!-- Small leaf accents -->
  <path d="M50 40 C52 38 55 38 56 40 C55 42 52 42 50 40Z" fill="#609550"/>
  <path d="M52 36 C53 34 56 34 57 36 C56 38 53 38 52 36Z" fill="#32CD32"/>
  <!-- NEYYA text -->
  <text x="70" y="35" font-family="Arial, sans-serif" font-weight="bold" font-size="28" fill="#2D2D2D" letter-spacing="2">NEYYA</text>
  <!-- Tagline -->
  <text x="70" y="52" font-family="Arial, sans-serif" font-size="10" fill="#609550" letter-spacing="0.5">Your Complete AI Travel Companion</text>
</svg>
